<svg width="49" height="67" viewBox="0 0 49 67" fill="none" xmlns="http://www.w3.org/2000/svg">
<g clip-path="url(#clip0_2_3221)">
<path d="M0.769836 7.5866L24.4207 2.27707L47.3406 7.5866L26.0713 8.09973L1.27302 7.85927L0.769836 7.5866Z" fill="#B75742"/>
<path d="M61.3211 23.6125V13.4147H-36.4261L-41.5389 23.6125H-2.30208H61.3211Z" fill="#B75742"/>
<path d="M86.3033 12.6401H-37.505V14.1893H86.3033V12.6401Z" fill="#F2E3D1"/>
<path d="M51.1074 58.8636H-2.2912V24.5942H51.1074V58.8636Z" fill="#F8C48B"/>
<path d="M144.904 59.0366H-93.9826V58.6614H144.904V59.0366Z" fill="#184655"/>
<path d="M37.7145 23.6125H35.8992H-43.0507V24.6205H35.8992H37.7145H91.6593V23.6125H37.7145Z" fill="#FCF5EB"/>
<path d="M50.9146 52.8126V56.2583H-1.11312V52.8126H-41.5438V58.6888H90.1539V52.8126H50.9146Z" fill="#9B4234"/>
<path d="M38.0357 55.7477H32.1692V24.6061H38.0357V55.7477Z" fill="#FCF5EB"/>
<path d="M39.3644 26.1648H30.839V24.6063H39.3644V26.1648Z" fill="#F2E3D1"/>
<path d="M38.8143 55.7477H31.3889V54.7526H38.8143V55.7477Z" fill="#F2E3D1"/>
<path d="M38.4025 31.7263H31.8018V31.0931H38.4025V31.7263Z" fill="#F2E3D1"/>
<path d="M38.4025 34.2856H31.8018V33.6525H38.4025V34.2856Z" fill="#F2E3D1"/>
<path d="M38.4025 47.6143H31.8018V46.9806H38.4025V47.6143Z" fill="#F2E3D1"/>
<path d="M38.4025 50.1736H31.8018V49.5399H38.4025V50.1736Z" fill="#F2E3D1"/>
<path d="M10.5556 55.8175H16.423V24.676H10.5556V55.8175Z" fill="#FCF5EB"/>
<path d="M17.7526 26.2346H9.22607V24.6761H17.7526V26.2346Z" fill="#F2E3D1"/>
<path d="M9.77631 55.8175H17.2023V54.8224H9.77631V55.8175Z" fill="#F2E3D1"/>
<path d="M16.7898 31.7964H10.1887V31.1627H16.7898V31.7964Z" fill="#F2E3D1"/>
<path d="M16.7898 34.3556H10.1887V33.722H16.7898V34.3556Z" fill="#F2E3D1"/>
<path d="M16.7898 47.6837H10.1887V47.0505H16.7898V47.6837Z" fill="#F2E3D1"/>
<path d="M16.7898 50.2429H10.1887V49.6093H16.7898V50.2429Z" fill="#F2E3D1"/>
<path d="M60.8176 57.0596H-12.0645V58.6888H60.8176V57.0596Z" fill="#F2E3D1"/>
<path d="M57.929 55.4569H-9.17761V57.0596H57.929V55.4569Z" fill="#FCF5EB"/>
<path d="M26.6129 38.1394C26.6129 38.9264 25.5178 39.5643 24.1676 39.5643C22.8173 39.5643 21.7231 38.9264 21.7231 38.1394C21.7231 37.3527 22.8173 36.7148 24.1676 36.7148C25.5178 36.7148 26.6129 37.3527 26.6129 38.1394Z" fill="#B75742"/>
<path d="M28.2591 31.6857C28.2591 30.6231 26.4276 29.7614 24.1697 29.7614C21.911 29.7614 20.0803 30.6231 20.0803 31.6857V31.6937V37.6445H28.2591V31.6937H28.2583L28.2591 31.6857Z" fill="#FCF5EB"/>
<path d="M27.6201 31.8053C27.6201 30.8739 26.075 30.1186 24.1697 30.1186C22.2627 30.1186 20.7184 30.8739 20.7184 31.8053V31.8125V37.2788H27.6201V31.8125V31.8053Z" fill="#3E6193"/>
<path d="M24.0081 37.5875H24.3129V29.8104H24.0081V37.5875Z" fill="#FCF5EB"/>
<path d="M29.2423 38.1394H19.1656V37.6445H29.2423V38.1394Z" fill="#F2E3D1"/>
<path d="M20.3589 32.7885V32.6103H27.9628V32.7885H20.3589Z" fill="#FCF5EB"/>
<path d="M20.3589 35.0846V34.907H27.9628V35.0846H20.3589Z" fill="#FCF5EB"/>
<path d="M45.1815 36.3018C45.1815 36.9169 44.3253 37.4161 43.269 37.4161C42.2128 37.4161 41.3566 36.9169 41.3566 36.3018C41.3566 35.6862 42.2128 35.1875 43.269 35.1875C44.3253 35.1875 45.1815 35.6862 45.1815 36.3018Z" fill="#B75742"/>
<path d="M46.469 31.2536C46.469 30.4224 45.0371 29.7483 43.2706 29.7483C41.5042 29.7483 40.0713 30.4224 40.0713 31.2536V31.2598V35.9143H46.469V31.2598V31.2536Z" fill="#FCF5EB"/>
<path d="M45.9707 31.347C45.9707 30.6184 44.7616 30.0275 43.271 30.0275C41.7804 30.0275 40.5714 30.6184 40.5714 31.347L40.5723 31.3527H40.5714V35.6287H45.9707V31.3527V31.347Z" fill="#3E6193"/>
<path d="M43.3837 35.8699H43.145V29.7861H43.3837V35.8699Z" fill="#FCF5EB"/>
<path d="M47.2397 36.3015H39.3567V35.9139H47.2397V36.3015Z" fill="#F2E3D1"/>
<path d="M40.2906 32.1161V31.9769H46.2378V32.1161H40.2906Z" fill="#FCF5EB"/>
<path d="M40.2906 33.9125V33.7733H46.2378V33.9125H40.2906Z" fill="#FCF5EB"/>
<path d="M42.4123 35.6285H40.5721V33.9123H43.1448V34.8861C42.8863 35.1483 42.6391 35.3986 42.4123 35.6285ZM43.3837 34.6443V33.9123H44.1079C43.8624 34.1603 43.6198 34.4063 43.3837 34.6443Z" fill="#507CAF"/>
<path d="M43.145 34.8861V33.9124H43.3837V34.6443C43.3029 34.7255 43.224 34.8063 43.145 34.8861Z" fill="#FDF8F0"/>
<path d="M45.971 31.3413C45.971 31.3409 45.971 31.3404 45.971 31.3399C45.971 31.3404 45.971 31.3409 45.971 31.3413ZM45.97 31.3342C45.97 31.3337 45.97 31.3337 45.97 31.3332C45.97 31.3337 45.97 31.3337 45.97 31.3342ZM45.97 31.328C45.97 31.3275 45.97 31.3271 45.97 31.3266C45.97 31.3271 45.97 31.3275 45.97 31.328ZM45.97 31.3209V31.3204V31.3209ZM45.97 31.3147C45.97 31.3147 45.97 31.3142 45.97 31.3138C45.97 31.3142 45.97 31.3147 45.97 31.3147ZM45.969 31.3081C45.969 31.3076 45.969 31.3076 45.969 31.3071C45.969 31.3076 45.969 31.3076 45.969 31.3081ZM45.969 31.3019C45.969 31.3014 45.969 31.3014 45.969 31.301C45.969 31.3014 45.969 31.3014 45.969 31.3019ZM45.968 31.2952C45.968 31.2948 45.968 31.2948 45.968 31.2943C45.968 31.2948 45.968 31.2948 45.968 31.2952ZM45.968 31.2886C45.968 31.2881 45.968 31.2881 45.968 31.2881V31.2886ZM45.968 31.282V31.2815V31.282ZM45.966 31.2691V31.2686V31.2691Z" fill="#FDF8F0"/>
<path d="M44.2449 33.7732H43.3834V32.1159H45.8866C45.3728 32.6327 44.8051 33.2066 44.2449 33.7732ZM43.1444 33.7732H40.5714V33.4194L42.0241 32.1159H43.1444V33.7732ZM45.9707 31.9767H43.3834V30.8961L44.2515 30.1176C45.2103 30.3005 45.9027 30.7432 45.966 31.2685V31.269C45.9669 31.2728 45.9669 31.2771 45.9679 31.2814V31.2819C45.9679 31.2842 45.9679 31.2861 45.9679 31.288C45.9679 31.288 45.9679 31.288 45.9679 31.2885C45.9679 31.2904 45.9679 31.2923 45.9679 31.2942C45.9679 31.2947 45.9679 31.2947 45.9679 31.2951C45.9679 31.2971 45.9679 31.2989 45.9688 31.3009C45.9688 31.3013 45.9688 31.3013 45.9688 31.3018C45.9688 31.3037 45.9688 31.3051 45.9688 31.307C45.9688 31.3075 45.9688 31.3075 45.9688 31.308C45.9688 31.3099 45.9688 31.3118 45.9698 31.3137C45.9698 31.3141 45.9698 31.3146 45.9698 31.3146C45.9698 31.3165 45.9698 31.3184 45.9698 31.3203V31.3208C45.9698 31.3227 45.9698 31.3246 45.9698 31.3265C45.9698 31.3269 45.9698 31.3274 45.9698 31.3279C45.9698 31.3298 45.9698 31.3317 45.9698 31.3331C45.9698 31.3336 45.9698 31.3336 45.9698 31.3341C45.9698 31.336 45.9707 31.3379 45.9707 31.3398C45.9707 31.3403 45.9707 31.3408 45.9707 31.3412C45.9707 31.3431 45.9707 31.345 45.9707 31.3469V31.3526V31.9767ZM43.1444 31.9767H42.1791L43.1444 31.1103V31.9767Z" fill="#507CAF"/>
<path d="M43.3837 33.7732H43.145V32.1159H43.3837V33.7732ZM43.3837 31.9768H43.145V31.1103L43.3837 30.8961V31.9768Z" fill="#FDF8F0"/>
<path d="M45.8867 32.116H43.3835H43.1445H42.0242L42.1791 31.9768H43.1445H43.3835H45.9707V32.0319C45.9433 32.0594 45.915 32.0875 45.8867 32.116Z" fill="#FDF8F0"/>
<path d="M44.1075 33.9125H43.3836H43.1445H40.5713V33.7733H43.1445H43.3836H44.2448C44.1981 33.8194 44.1523 33.8659 44.1075 33.9125Z" fill="#FDF8F0"/>
<path d="M45.1815 47.867C45.1815 48.4826 44.3253 48.9818 43.269 48.9818C42.2128 48.9818 41.3566 48.4826 41.3566 47.867C41.3566 47.2519 42.2128 46.7527 43.269 46.7527C44.3253 46.7527 45.1815 47.2519 45.1815 47.867Z" fill="#B75742"/>
<path d="M46.469 42.8188C46.469 41.9875 45.0371 41.314 43.2706 41.314C41.5042 41.314 40.0713 41.9875 40.0713 42.8188V42.825V47.48H46.469V42.825V42.8188Z" fill="#FCF5EB"/>
<path d="M45.9707 42.9123C45.9707 42.1836 44.7616 41.5933 43.271 41.5933C41.7804 41.5933 40.5714 42.1836 40.5714 42.9123L40.5723 42.918H40.5714V47.194H45.9707V42.918V42.9123Z" fill="#3E6193"/>
<path d="M43.3837 47.4352H43.145V41.3519H43.3837V47.4352Z" fill="#FCF5EB"/>
<path d="M47.2397 47.8669H39.3567V47.4798H47.2397V47.8669Z" fill="#F2E3D1"/>
<path d="M40.2906 43.6814V43.5422H46.2378V43.6814H40.2906Z" fill="#FCF5EB"/>
<path d="M40.2906 45.4778V45.3386H46.2378V45.4778H40.2906Z" fill="#FCF5EB"/>
<path d="M42.4123 47.1938H40.5721V45.4777H43.1448V46.4514C42.8863 46.7141 42.6391 46.9644 42.4123 47.1938ZM43.3837 46.2097V45.4777H44.1079C43.8624 45.7261 43.6198 45.9717 43.3837 46.2097Z" fill="#507CAF"/>
<path d="M43.145 46.4514V45.4777H43.3837V46.2097C43.3029 46.2913 43.224 46.3721 43.145 46.4514Z" fill="#FDF8F0"/>
<path d="M45.971 42.9065C45.971 42.9061 45.971 42.9056 45.971 42.9051C45.971 42.9056 45.971 42.9061 45.971 42.9065ZM45.97 42.8994V42.8989V42.8994ZM45.97 42.8937C45.97 42.8932 45.97 42.8927 45.97 42.8922C45.97 42.8927 45.97 42.8932 45.97 42.8937ZM45.97 42.8866C45.97 42.8861 45.97 42.8861 45.97 42.8856C45.97 42.8861 45.97 42.8861 45.97 42.8866ZM45.97 42.8804C45.97 42.8799 45.97 42.8799 45.97 42.8794C45.97 42.8799 45.97 42.8799 45.97 42.8804ZM45.969 42.8732V42.8728V42.8732ZM45.969 42.8671V42.8666V42.8671ZM45.968 42.8604C45.968 42.8604 45.968 42.86 45.968 42.8595C45.968 42.86 45.968 42.8604 45.968 42.8604ZM45.968 42.8476C45.968 42.8471 45.968 42.8471 45.968 42.8467C45.968 42.8471 45.968 42.8471 45.968 42.8476ZM45.966 42.8343C45.966 42.8343 45.966 42.8343 45.966 42.8338C45.966 42.8343 45.966 42.8343 45.966 42.8343Z" fill="#FDF8F0"/>
<path d="M44.2449 45.3386H43.3834V43.6813H45.8866C45.3728 44.1986 44.8051 44.772 44.2449 45.3386ZM43.1444 45.3386H40.5714V44.9847L42.0241 43.6813H43.1444V45.3386ZM45.9707 43.5422H43.3834V42.462L44.2515 41.6835C45.2018 41.8645 45.8914 42.3014 45.9641 42.8216C45.965 42.8258 45.965 42.8301 45.966 42.8339C45.966 42.8344 45.966 42.8344 45.966 42.8344C45.9669 42.8387 45.9669 42.843 45.9679 42.8468C45.9679 42.8473 45.9679 42.8473 45.9679 42.8477C45.9679 42.8496 45.9679 42.8515 45.9679 42.8539C45.9679 42.8558 45.9679 42.8577 45.9679 42.8596C45.9679 42.8601 45.9679 42.8605 45.9679 42.8605C45.9679 42.8624 45.9679 42.8643 45.9688 42.8667V42.8672C45.9688 42.8691 45.9688 42.871 45.9688 42.8729V42.8733C45.9688 42.8757 45.9688 42.8776 45.9698 42.8795C45.9698 42.88 45.9698 42.88 45.9698 42.8805C45.9698 42.8824 45.9698 42.8838 45.9698 42.8857C45.9698 42.8862 45.9698 42.8862 45.9698 42.8867C45.9698 42.8885 45.9698 42.8905 45.9698 42.8923C45.9698 42.8928 45.9698 42.8933 45.9698 42.8938C45.9698 42.8952 45.9698 42.8971 45.9698 42.899V42.8995C45.9698 42.9014 45.9707 42.9033 45.9707 42.9052C45.9707 42.9057 45.9707 42.9061 45.9707 42.9066C45.9707 42.9085 45.9707 42.9104 45.9707 42.9123V42.918V43.5422ZM43.1444 43.5422H42.1791L43.1444 42.6762V43.5422Z" fill="#507CAF"/>
<path d="M43.3837 45.3385H43.145V43.6812H43.3837V45.3385ZM43.3837 43.5421H43.145V42.6761L43.3837 42.4619V43.5421Z" fill="#FDF8F0"/>
<path d="M45.8867 43.6813H43.3835H43.1445H42.0242L42.1791 43.5421H43.1445H43.3835H45.9707V43.5972C45.9433 43.6252 45.915 43.6533 45.8867 43.6813Z" fill="#FDF8F0"/>
<path d="M44.1075 45.4778H43.3836H43.1445H40.5713V45.3386H43.1445H43.3836H44.2448C44.1981 45.3851 44.1523 45.4317 44.1075 45.4778Z" fill="#FDF8F0"/>
<path d="M7.13604 36.3017C7.13604 36.9168 6.28013 37.416 5.22369 37.416C4.16807 37.416 3.31134 36.9168 3.31134 36.3017C3.31134 35.6861 4.16807 35.1873 5.22369 35.1873C6.28013 35.1873 7.13604 35.6861 7.13604 36.3017Z" fill="#B75742"/>
<path d="M8.4248 31.2534C8.4248 30.4221 6.99258 29.7481 5.22533 29.7481C3.45889 29.7481 2.02667 30.4221 2.02667 31.2534V31.2595V35.9141H8.4248V31.2595H8.42399L8.4248 31.2534Z" fill="#FCF5EB"/>
<path d="M7.92513 31.347C7.92513 30.6184 6.71625 30.0275 5.22534 30.0275C3.73442 30.0275 2.52637 30.6184 2.52637 31.347V31.3527V35.6287H7.92513V31.3527V31.347Z" fill="#3E6193"/>
<path d="M5.09894 35.8699H5.3378V29.7861H5.09894V35.8699Z" fill="#FCF5EB"/>
<path d="M9.19349 36.3018H1.31097V35.9142H9.19349V36.3018Z" fill="#F2E3D1"/>
<path d="M2.24512 32.116H8.1925V31.9768H2.24512V32.116Z" fill="#FCF5EB"/>
<path d="M2.24512 33.9125H8.1925V33.7733H2.24512V33.9125Z" fill="#FCF5EB"/>
<path d="M4.36616 35.6287H2.52637V33.9125H5.09898V34.8862C4.83976 35.1484 4.59278 35.3988 4.36616 35.6287ZM5.33782 34.6445V33.9125H6.06168C5.81632 34.1604 5.5734 34.4065 5.33782 34.6445Z" fill="#507CAF"/>
<path d="M5.099 34.8862V33.9125H5.33784V34.6445C5.25714 34.7262 5.17807 34.8064 5.099 34.8862Z" fill="#FDF8F0"/>
<path d="M7.92538 31.3413C7.92538 31.3408 7.92538 31.3404 7.92538 31.3399C7.92538 31.3404 7.92538 31.3408 7.92538 31.3413ZM7.92538 31.3342C7.92538 31.3337 7.92538 31.3337 7.92538 31.3332C7.92538 31.3337 7.92538 31.3337 7.92538 31.3342ZM7.92538 31.328C7.92538 31.3275 7.92452 31.3271 7.92452 31.3266C7.92452 31.3271 7.92538 31.3275 7.92538 31.328ZM7.92452 31.3209C7.92452 31.3209 7.92452 31.3204 7.92452 31.3199C7.92452 31.3204 7.92452 31.3209 7.92452 31.3209ZM7.92452 31.3152C7.92452 31.3147 7.92452 31.3142 7.92452 31.3138C7.92452 31.3142 7.92452 31.3147 7.92452 31.3152ZM7.92366 31.3081C7.92366 31.3076 7.92366 31.3076 7.92366 31.3071C7.92366 31.3076 7.92366 31.3076 7.92366 31.3081ZM7.92366 31.3019C7.92366 31.3014 7.92366 31.3014 7.92366 31.3009C7.92366 31.3014 7.92366 31.3014 7.92366 31.3019ZM7.9228 31.2952C7.9228 31.2948 7.9228 31.2943 7.9228 31.2943C7.9228 31.2943 7.9228 31.2948 7.9228 31.2952ZM7.9228 31.2886V31.2881V31.2886ZM7.92195 31.2819V31.2815V31.2819ZM7.92023 31.2691V31.2686V31.2691Z" fill="#FDF8F0"/>
<path d="M6.19944 33.7733H5.33783V32.116H7.84117C7.32843 32.6328 6.75945 33.2066 6.19944 33.7733ZM5.09899 33.7733H2.52637V33.4194L3.97897 32.116H5.09899V33.7733ZM7.92513 31.9769H5.33783V30.8962L6.20597 30.1177C7.15726 30.2992 7.84606 30.7362 7.91861 31.2558C7.91942 31.2601 7.91942 31.2644 7.92024 31.2686V31.2691C7.92105 31.2734 7.92105 31.2772 7.92187 31.2815V31.2819C7.92187 31.2838 7.92187 31.2862 7.92268 31.2881V31.2886C7.92268 31.2905 7.92268 31.2924 7.92268 31.2943C7.92268 31.2943 7.92268 31.2948 7.92268 31.2952C7.9235 31.2971 7.92349 31.299 7.92349 31.3009C7.92349 31.3014 7.92349 31.3014 7.92349 31.3019C7.92349 31.3038 7.92349 31.3052 7.92349 31.3071C7.92349 31.3076 7.92349 31.3076 7.92349 31.3081C7.92431 31.31 7.92431 31.3119 7.92431 31.3138C7.92431 31.3142 7.92431 31.3147 7.92431 31.3152C7.92431 31.3166 7.92431 31.3185 7.92431 31.3199C7.92431 31.3204 7.92431 31.3209 7.92431 31.3209C7.92431 31.3228 7.92431 31.3247 7.92431 31.3266C7.92431 31.3271 7.92513 31.3275 7.92513 31.328C7.92513 31.3299 7.92513 31.3318 7.92513 31.3332C7.92513 31.3337 7.92513 31.3337 7.92513 31.3342C7.92513 31.3361 7.92513 31.338 7.92513 31.3399C7.92513 31.3404 7.92513 31.3408 7.92513 31.3413C7.92513 31.3432 7.92513 31.3451 7.92513 31.347V31.3527V31.9769ZM5.09899 31.9769H4.13385L5.09899 31.1105V31.9769Z" fill="#507CAF"/>
<path d="M5.33784 33.7733H5.099V32.116H5.33784V33.7733ZM5.33784 31.9769H5.099V31.1105L5.33784 30.8962V31.9769Z" fill="#FDF8F0"/>
<path d="M7.84117 32.116H3.979L4.13388 31.9768H7.92512V32.0319C7.89741 32.0594 7.8697 32.0875 7.84117 32.116Z" fill="#FDF8F0"/>
<path d="M6.06171 33.9125H2.52637V33.7733H6.19947C6.15382 33.8194 6.10736 33.8659 6.06171 33.9125Z" fill="#FDF8F0"/>
<path d="M7.13604 47.867C7.13604 48.4826 6.28013 48.9818 5.22369 48.9818C4.16807 48.9818 3.31134 48.4826 3.31134 47.867C3.31134 47.2519 4.16807 46.7526 5.22369 46.7526C6.28013 46.7526 7.13604 47.2519 7.13604 47.867Z" fill="#B75742"/>
<path d="M8.4248 42.8187C8.4248 41.9874 6.99258 41.3139 5.22533 41.3139C3.45889 41.3139 2.02667 41.9874 2.02667 42.8187V42.8249V47.4799H8.4248V42.8249H8.42399L8.4248 42.8187Z" fill="#FCF5EB"/>
<path d="M7.92513 42.9123C7.92513 42.1837 6.71625 41.5932 5.22534 41.5932C3.73442 41.5932 2.52637 42.1837 2.52637 42.9123V42.918V47.194H7.92513V42.918V42.9123Z" fill="#3E6193"/>
<path d="M5.09894 47.4352H5.3378V41.3518H5.09894V47.4352Z" fill="#FCF5EB"/>
<path d="M9.19349 47.8669H1.31097V47.4798H9.19349V47.8669Z" fill="#F2E3D1"/>
<path d="M2.24512 43.6813H8.1925V43.5421H2.24512V43.6813Z" fill="#FCF5EB"/>
<path d="M2.24512 45.4778H8.1925V45.3386H2.24512V45.4778Z" fill="#FCF5EB"/>
<path d="M4.36616 47.194H2.52637V45.4778H5.09898V46.4515C4.83976 46.7142 4.59278 46.9645 4.36616 47.194ZM5.33782 46.2098V45.4778H6.06168C5.81632 45.7262 5.5734 45.9718 5.33782 46.2098Z" fill="#507CAF"/>
<path d="M5.099 46.4515V45.4778H5.33784V46.2098C5.25714 46.2915 5.17807 46.3722 5.099 46.4515Z" fill="#FDF8F0"/>
<path d="M7.92538 42.9066C7.92538 42.9061 7.92538 42.9057 7.92538 42.9052C7.92538 42.9057 7.92538 42.9061 7.92538 42.9066ZM7.92538 42.8995V42.899V42.8995ZM7.92538 42.8938C7.92538 42.8933 7.92452 42.8928 7.92452 42.8924C7.92452 42.8928 7.92538 42.8933 7.92538 42.8938ZM7.92452 42.8867C7.92452 42.8862 7.92452 42.8862 7.92452 42.8857C7.92452 42.8862 7.92452 42.8862 7.92452 42.8867ZM7.92452 42.8805C7.92452 42.88 7.92452 42.88 7.92452 42.8795C7.92452 42.88 7.92452 42.88 7.92452 42.8805ZM7.92366 42.8738C7.92366 42.8734 7.92366 42.8729 7.92366 42.8729C7.92366 42.8729 7.92366 42.8734 7.92366 42.8738ZM7.92366 42.8672V42.8667V42.8672ZM7.9228 42.8605C7.9228 42.8605 7.9228 42.8601 7.9228 42.8596C7.9228 42.8601 7.9228 42.8605 7.9228 42.8605ZM7.92195 42.8477C7.92195 42.8472 7.92195 42.8472 7.92195 42.8468C7.92195 42.8472 7.92195 42.8472 7.92195 42.8477ZM7.92023 42.8349C7.92023 42.8344 7.92023 42.8344 7.92023 42.8339C7.92023 42.8344 7.92023 42.8344 7.92023 42.8349Z" fill="#FDF8F0"/>
<path d="M6.19944 45.3386H5.33783V43.6814H7.84117C7.32843 44.1986 6.75945 44.7719 6.19944 45.3386ZM5.09899 45.3386H2.52637V44.9847L3.97897 43.6814H5.09899V45.3386ZM7.92513 43.5422H5.33783V42.462L6.20597 41.6835C7.15726 41.8645 7.84606 42.3015 7.91861 42.8216C7.91942 42.8259 7.91942 42.8302 7.92024 42.834C7.92024 42.8344 7.92024 42.8344 7.92024 42.8349C7.92105 42.8387 7.92105 42.843 7.92187 42.8468C7.92187 42.8473 7.92187 42.8473 7.92187 42.8477C7.92187 42.8496 7.92187 42.8515 7.92268 42.8539C7.92268 42.8558 7.92268 42.8577 7.92268 42.8596C7.92268 42.8601 7.92268 42.8606 7.92268 42.8606C7.9235 42.8625 7.92349 42.8644 7.92349 42.8667V42.8672C7.92349 42.8691 7.92349 42.871 7.92349 42.8729C7.92349 42.8729 7.92349 42.8734 7.92349 42.8739C7.92431 42.8758 7.92431 42.8777 7.92431 42.8796C7.92431 42.88 7.92431 42.88 7.92431 42.8805C7.92431 42.8824 7.92431 42.8838 7.92431 42.8857C7.92431 42.8862 7.92431 42.8862 7.92431 42.8867C7.92431 42.8886 7.92431 42.8905 7.92431 42.8924C7.92431 42.8929 7.92513 42.8933 7.92513 42.8938C7.92513 42.8952 7.92513 42.8971 7.92513 42.899V42.8995C7.92513 42.9014 7.92513 42.9033 7.92513 42.9052C7.92513 42.9057 7.92513 42.9062 7.92513 42.9066C7.92513 42.9085 7.92513 42.9104 7.92513 42.9123V42.918V43.5422ZM5.09899 43.5422H4.13385L5.09899 42.6763V43.5422Z" fill="#507CAF"/>
<path d="M5.33784 45.3386H5.099V43.6814H5.33784V45.3386ZM5.33784 43.5422H5.099V42.6763L5.33784 42.462V43.5422Z" fill="#FDF8F0"/>
<path d="M7.84117 43.6813H3.979L4.13388 43.5421H7.92512V43.5972C7.89741 43.6252 7.8697 43.6532 7.84117 43.6813Z" fill="#FDF8F0"/>
<path d="M6.06171 45.4778H2.52637V45.3386H6.19947C6.15382 45.3852 6.10736 45.4317 6.06171 45.4778Z" fill="#FDF8F0"/>
<path d="M29.4244 47.0912C29.4244 45.5009 27.1245 44.2118 24.2875 44.2118C21.4496 44.2118 19.1505 45.5009 19.1505 47.0912V47.1036V56.0099H29.4244V47.1036H29.4236L29.4244 47.0912Z" fill="#FCF5EB"/>
<path d="M28.6219 47.2709C28.6219 45.8768 26.6807 44.7463 24.2869 44.7463C21.893 44.7463 19.9518 45.8768 19.9518 47.2709V47.2813V55.4633H28.6219V47.2813V47.2709Z" fill="#3E6193"/>
<path d="M24.0553 55.8574H24.559V44.4788H24.0553V55.8574Z" fill="#FCF5EB"/>
<path d="M20.939 55.4546H19.9518V51.7577L24.0553 44.7851V50.1598L20.939 55.4546Z" fill="#507CAF"/>
<path d="M25.1394 44.7952C25.1394 44.7952 25.1394 44.7952 25.1386 44.7952H25.1394ZM25.1296 44.7942C25.1279 44.7942 25.1271 44.7937 25.1255 44.7937C25.1271 44.7937 25.1279 44.7942 25.1296 44.7942ZM25.1181 44.7928C25.1157 44.7928 25.1132 44.7923 25.1108 44.7918C25.1132 44.7923 25.1157 44.7928 25.1181 44.7928ZM25.1067 44.7914C24.9278 44.7714 24.7448 44.7581 24.5586 44.7515C24.7448 44.7581 24.9278 44.7714 25.1067 44.7914Z" fill="#FDF8F0"/>
<path d="M24.5585 49.303V44.7515C24.7447 44.7582 24.9277 44.7715 25.1065 44.7915C25.1081 44.7919 25.109 44.7919 25.1106 44.7919C25.1131 44.7924 25.1156 44.7929 25.1181 44.7929C25.1206 44.7933 25.123 44.7933 25.1255 44.7938C25.1272 44.7938 25.128 44.7943 25.1297 44.7943C25.1321 44.7947 25.1355 44.7947 25.1388 44.7952C25.1396 44.7952 25.1396 44.7952 25.1396 44.7952C25.8043 44.8727 26.4144 45.0384 26.9318 45.2712L24.5585 49.303Z" fill="#507CAF"/>
<path d="M24.0553 50.1598V44.7851L24.0757 44.7495C24.1458 44.7476 24.2159 44.7462 24.2868 44.7462C24.3781 44.7462 24.4694 44.7481 24.5591 44.7514V49.3029L24.0553 50.1598Z" fill="#FDF8F0"/>
<path d="M24.7892 55.4547H24.5587V51.9568L28.0471 46.0284C28.41 46.397 28.6179 46.8245 28.6179 47.28V47.2904V48.9496L24.7892 55.4547ZM24.055 55.4547H22.5002L24.055 52.8137V55.4547Z" fill="#507CAF"/>
<path d="M24.5591 55.4546H24.0553V52.8136L24.5591 51.9567V55.4546Z" fill="#FDF8F0"/>
<path d="M47.3406 8.5539H0.769836V23.5647H47.3406V8.5539Z" fill="#F8C48B"/>
<path d="M26.5664 19.4956C26.5664 20.2826 25.4725 20.9205 24.1219 20.9205C22.7721 20.9205 21.6774 20.2826 21.6774 19.4956C21.6774 18.7086 22.7721 18.0707 24.1219 18.0707C25.4725 18.0707 26.5664 18.7086 26.5664 19.4956Z" fill="#B75742"/>
<path d="M28.2126 13.0419C28.2126 11.9794 26.3817 11.118 24.1229 11.118C21.865 11.118 20.0332 11.9794 20.0332 13.0419L20.034 13.0497H20.0332V19.0007H28.2126V13.0497V13.0419Z" fill="#FCF5EB"/>
<path d="M27.5749 13.1613C27.5749 12.2297 26.0303 11.4746 24.1231 11.4746C22.2176 11.4746 20.673 12.2297 20.673 13.1613V13.1685V18.6351H27.5749V13.1685V13.1613Z" fill="#3E6193"/>
<path d="M23.9624 18.9438H24.2673V11.1666H23.9624V18.9438Z" fill="#FCF5EB"/>
<path d="M29.1959 19.496H19.1191V19.0006H29.1959V19.496Z" fill="#F2E3D1"/>
<path d="M20.3126 14.1448V13.9669H27.9164V14.1448H20.3126Z" fill="#FCF5EB"/>
<path d="M20.3126 16.441V16.2632H27.9164V16.441H20.3126Z" fill="#FCF5EB"/>
<path d="M39.4468 19.4958C39.4468 20.2827 38.3523 20.9205 37.0017 20.9205C35.6512 20.9205 34.5566 20.2827 34.5566 19.4958C34.5566 18.709 35.6512 18.0711 37.0017 18.0711C38.3523 18.0711 39.4468 18.709 39.4468 19.4958Z" fill="#B75742"/>
<path d="M41.0931 13.0421C41.0931 11.9793 39.2619 11.118 37.0036 11.118C34.7443 11.118 32.914 11.9793 32.914 13.0421V13.0501V19.0007H41.0931V13.0501H41.0922L41.0931 13.0421Z" fill="#FCF5EB"/>
<path d="M40.454 13.1616C40.454 12.2302 38.9093 11.475 37.0031 11.475C35.0969 11.475 33.5522 12.2302 33.5522 13.1616V13.169V18.6354H40.454V13.169V13.1616Z" fill="#3E6193"/>
<path d="M37.1468 18.944H36.8423V11.1669H37.1468V18.944Z" fill="#FCF5EB"/>
<path d="M42.0764 19.4958H31.9991V19.0006H42.0764V19.4958Z" fill="#F2E3D1"/>
<path d="M33.1926 14.1449V13.9667H40.7968V14.1449H33.1926Z" fill="#FCF5EB"/>
<path d="M33.1926 16.4412V16.2636H40.7968V16.4412H33.1926Z" fill="#FCF5EB"/>
<path d="M29.0913 7.58652H28.4429H0.258789V8.59485H28.4429H29.0913H48.3491V7.58652H29.0913Z" fill="#FCF5EB"/>
<path d="M1.27345 26.1647H-7.2522V24.6062H1.27345V26.1647Z" fill="#F2E3D1"/>
<path d="M0.723228 55.7477H-6.70197V54.7526H0.723228V55.7477Z" fill="#F2E3D1"/>
<path d="M0.31073 31.7266H-6.28955V31.0934H0.31073V31.7266Z" fill="#F2E3D1"/>
<path d="M0.31073 34.2858H-6.28955V33.6526H0.31073V34.2858Z" fill="#F2E3D1"/>
<path d="M0.31073 47.6143H-6.28955V46.9806H0.31073V47.6143Z" fill="#F2E3D1"/>
<path d="M0.31073 50.1736H-6.28955V49.5399H0.31073V50.1736Z" fill="#F2E3D1"/>
<path d="M54.5142 55.8175H48.6467V24.676H54.5142V55.8175Z" fill="#FCF5EB"/>
<path d="M55.8442 26.2344H47.3173V24.6759H55.8442V26.2344Z" fill="#F2E3D1"/>
<path d="M55.2942 55.8175H47.8678V54.8223H55.2942V55.8175Z" fill="#F2E3D1"/>
<path d="M54.8809 31.7964H48.2798V31.1627H54.8809V31.7964Z" fill="#F2E3D1"/>
<path d="M54.8809 34.3557H48.2798V33.7221H54.8809V34.3557Z" fill="#F2E3D1"/>
<path d="M54.8809 47.6837H48.2798V47.0505H54.8809V47.6837Z" fill="#F2E3D1"/>
<path d="M54.8809 50.2429H48.2798V49.6093H54.8809V50.2429Z" fill="#F2E3D1"/>
<path d="M13.6858 19.4958C13.6858 20.2824 12.591 20.9203 11.2411 20.9203C9.8904 20.9203 8.79565 20.2824 8.79565 19.4958C8.79565 18.7087 9.8904 18.0712 11.2411 18.0712C12.591 18.0712 13.6858 18.7087 13.6858 19.4958Z" fill="#B75742"/>
<path d="M15.3324 13.042C15.3324 11.9794 13.5015 11.1178 11.2427 11.1178C8.98397 11.1178 7.15314 11.9794 7.15314 13.042V13.0501V19.0009H15.3324V13.0501V13.042Z" fill="#FCF5EB"/>
<path d="M14.6941 13.1616C14.6941 12.2301 13.1486 11.4749 11.2428 11.4749C9.33697 11.4749 7.79144 12.2301 7.79144 13.1616L7.79225 13.1687H7.79144V18.635H14.6941V13.1687V13.1616Z" fill="#3E6193"/>
<path d="M11.0814 18.9438H11.3871V11.1666H11.0814V18.9438Z" fill="#FCF5EB"/>
<path d="M16.3162 19.4957H6.23859V19.0003H16.3162V19.4957Z" fill="#F2E3D1"/>
<path d="M7.43274 14.1444H15.0357V13.9666H7.43274V14.1444Z" fill="#FCF5EB"/>
<path d="M7.43274 16.441H15.0357V16.2632H7.43274V16.441Z" fill="#FCF5EB"/>
<path d="M10.1334 18.6393H7.78247V16.441H7.79144V18.635H10.1375C10.1366 18.6364 10.135 18.6379 10.1334 18.6393Z" fill="#FDF8F0"/>
<path d="M10.1374 18.635H7.79144V16.441H11.0814V17.6793C10.748 18.0175 10.4301 18.3396 10.1374 18.635ZM11.3871 17.3701V16.441H12.3057C11.9935 16.7559 11.6854 17.068 11.3871 17.3701Z" fill="#507CAF"/>
<path d="M11.0814 17.6793V16.441H11.3871V17.3701C11.2835 17.4746 11.1816 17.5777 11.0814 17.6793Z" fill="#FDF8F0"/>
<path d="M7.79144 16.2634H7.78247V15.8169L7.79144 15.8084V16.2634Z" fill="#FDF8F0"/>
<path d="M12.481 16.2634H11.3871V14.1445H14.5808C13.9246 14.8052 13.1983 15.5386 12.481 16.2634ZM11.0814 16.2634H7.79144V15.8084L9.6459 14.1445H11.0814V16.2634ZM14.6802 13.9668H11.3871V12.5831L12.4842 11.5985C13.7697 11.8436 14.6802 12.4539 14.6802 13.1693V13.1764V13.9668ZM11.0814 13.9668H9.84479L11.0814 12.8567V13.9668Z" fill="#507CAF"/>
<path d="M11.3871 16.2634H11.0814V14.1445H11.3871V16.2634ZM11.3871 13.9668H11.0814V12.8567L11.3871 12.5831V13.9668Z" fill="#FDF8F0"/>
<path d="M14.5807 14.1444H9.64587L9.84476 13.9668H14.6802V14.0442C14.6476 14.0774 14.6142 14.1107 14.5807 14.1444Z" fill="#FDF8F0"/>
<path d="M12.3057 16.441H7.78247V16.2634H12.481C12.4223 16.3228 12.3636 16.3821 12.3057 16.441Z" fill="#FDF8F0"/>
<path d="M23.0602 18.6396H20.7083V18.6353H23.0636C23.0627 18.6367 23.0619 18.6382 23.0602 18.6396ZM27.6068 13.9668H27.5743V13.1689V13.1616C27.5743 12.5241 26.8514 11.9695 25.7832 11.6825C26.868 11.9666 27.6068 12.5255 27.6068 13.1689V13.1761V13.9668Z" fill="#FDF8F0"/>
<path d="M23.0643 18.6351H20.7088V16.441H23.9626V17.7254C23.6457 18.0467 23.3438 18.3526 23.0643 18.6351ZM24.2679 17.4167V16.441H25.2319C24.9041 16.7721 24.5806 17.0997 24.2679 17.4167ZM25.4082 16.2632H24.2679V14.1442H27.5075C26.8521 14.8048 26.1252 15.5386 25.4082 16.2632ZM23.9626 16.2632H20.7088V15.8168L22.5727 14.1442H23.9626V16.2632ZM27.5749 13.9663H24.2679V12.6237L25.4107 11.5982C25.5396 11.6229 25.6635 11.651 25.7841 11.682C26.8521 11.969 27.5749 12.5239 27.5749 13.1612V13.1685V13.9663ZM23.9626 13.9663H22.7715L23.9626 12.8976V13.9663Z" fill="#507CAF"/>
<path d="M23.9624 17.726V16.4411H24.2672V17.4167C24.1645 17.5212 24.0627 17.6243 23.9624 17.726ZM24.2672 16.2634H23.9624V14.1445H24.2672V16.2634ZM24.2672 13.9668H23.9624V12.898L24.2672 12.624V13.9668Z" fill="#FDF8F0"/>
<path d="M27.5061 14.1448H24.2673H23.962H22.5726L22.7706 13.9669H23.962H24.2673H27.5743H27.6068V14.0444C27.5735 14.0774 27.5402 14.1108 27.5061 14.1448Z" fill="#FDF8F0"/>
<path d="M25.2319 16.4413H24.2677H23.9624H20.7083V16.2634H23.9624H24.2677H25.4078C25.3489 16.3225 25.2908 16.3821 25.2319 16.4413Z" fill="#FDF8F0"/>
<path d="M23.06 37.2831H20.7083V35.0848H20.7181V37.2788H23.0641C23.0625 37.2807 23.0617 37.2817 23.06 37.2831ZM20.7181 34.9071H20.7083V34.4606L20.7181 34.4521V34.9071Z" fill="#FDF8F0"/>
<path d="M23.0635 37.2788H20.7183V35.0848H24.0078V36.3231C23.6733 36.6613 23.3555 36.9833 23.0635 37.2788ZM24.3131 36.0143V35.0848H25.2316C24.9204 35.4002 24.6118 35.7117 24.3131 36.0143ZM25.4071 34.9071H24.3131V32.7886H27.5061C26.8514 33.4489 26.1242 34.1822 25.4071 34.9071ZM24.0078 34.9071H20.7183V34.4521L22.5727 32.7886H24.0078V34.9071ZM27.6068 32.6105H24.3131V31.2268L25.4096 30.2422C26.6958 30.4873 27.6068 31.0981 27.6068 31.813V31.8201V32.6105ZM24.0078 32.6105H22.7707L24.0078 31.5004V32.6105Z" fill="#507CAF"/>
<path d="M24.0081 36.3231V35.0848H24.3129V36.0144C24.2102 36.1184 24.1083 36.2215 24.0081 36.3231ZM24.3129 34.9071H24.0081V32.7886H24.3129V34.9071ZM24.3129 32.6105H24.0081V31.5004L24.3129 31.2268V32.6105Z" fill="#FDF8F0"/>
<path d="M27.5061 32.7887H24.3131H24.0077H22.5726L22.7706 32.6105H24.0077H24.3131H27.6068V32.688C27.5735 32.7212 27.5402 32.755 27.5061 32.7887Z" fill="#FDF8F0"/>
<path d="M25.2319 35.0847H24.3127H24.0083H20.7181H20.7083V34.9071H20.7181H24.0083H24.3127H25.4078C25.3489 34.9664 25.2908 35.0258 25.2319 35.0847Z" fill="#FDF8F0"/>
<path d="M35.9856 18.6394H33.6349V18.6348H35.9909C35.9891 18.6364 35.9874 18.6378 35.9856 18.6394Z" fill="#FDF8F0"/>
<path d="M35.9907 18.6353H33.6351V16.4411H36.8425V17.7722C36.5413 18.0763 36.2552 18.3667 35.9907 18.6353ZM37.1474 17.4632V16.4411H38.158C37.8136 16.7886 37.4738 17.1324 37.1474 17.4632Z" fill="#507CAF"/>
<path d="M36.8423 17.7723V16.4413H37.1468V17.4635C37.0444 17.5678 36.942 17.6708 36.8423 17.7723Z" fill="#FDF8F0"/>
<path d="M40.5324 13.9672H40.454V13.1691V13.1616C40.454 12.4602 39.5774 11.8586 38.3299 11.6042L38.3363 11.5989C39.622 11.8437 40.5324 12.4544 40.5324 13.1691V13.1765V13.9672Z" fill="#FDF8F0"/>
<path d="M38.3328 16.2637H37.147V14.1451H40.433C39.7763 14.8053 39.0504 15.5387 38.3328 16.2637ZM36.8419 16.2637H33.6342V15.8173L35.4976 14.1451H36.8419V16.2637ZM40.4539 13.9673H37.147V12.6654L38.33 11.6045C39.5778 11.8582 40.4539 12.4601 40.4539 13.1617V13.1691V13.9673ZM36.8419 13.9673H35.697L36.8419 12.9393V13.9673Z" fill="#507CAF"/>
<path d="M37.1468 16.2634H36.8423V14.1448H37.1468V16.2634ZM37.1468 13.9668H36.8423V12.9394L37.1468 12.6655V13.9668Z" fill="#FDF8F0"/>
<path d="M40.433 14.145H37.1471H36.8418H35.4977L35.6973 13.9671H36.8418H37.1471H40.454H40.5323V14.0441C40.4995 14.0776 40.4667 14.111 40.433 14.145Z" fill="#FDF8F0"/>
<path d="M38.1583 16.4413H37.1474H36.8422H33.6345V16.2634H36.8422H37.1474H38.3333C38.275 16.3225 38.2157 16.3822 38.1583 16.4413Z" fill="#FDF8F0"/>
<path d="M29.4046 66.126C23.7662 66.126 18.9453 66.0922 16.9123 65.9897C11.1809 65.7018 2.75235 63.7572 -2.98306 63.4916C-7.46568 63.2841 -12.7828 63.2171 -18.5793 63.2171C-23.8395 63.2171 -29.4946 63.2722 -35.2796 63.3273C-41.0653 63.3824 -46.9791 63.4375 -52.76 63.4375C-65.2107 63.4375 -77.0369 63.1819 -85.587 62.1208C-89.7544 61.6035 -91.4847 59.3098 -91.6774 59.0367H-12.6924L-12.7249 59.7283L-12.2799 59.7302C-12.2799 59.7302 -12.0786 59.42 -11.9147 59.0367H144.232C144.232 59.0367 139.713 60.8364 137.482 61.1361C135.232 61.4387 132.864 61.3788 130.549 61.4976C123.518 61.8581 117.152 63.8484 110.168 64.4008C108.632 64.5224 107.092 64.5727 105.551 64.5727C99.3763 64.5727 93.1695 63.7648 86.9628 63.4897C86.8792 63.4859 86.7833 63.484 86.6734 63.484C84.6231 63.484 78.0759 64.1105 71.6509 64.7371C65.2244 65.3636 58.9202 65.9897 57.3604 65.9897C57.3588 65.9897 57.3557 65.9897 57.3542 65.9897C56.2973 65.9897 52.1331 66.0238 46.8208 66.0581C41.5063 66.0922 35.0454 66.126 29.4046 66.126Z" fill="#FCEADC"/>
<path d="M144.232 59.0366H-11.9147C-11.9122 59.0308 -11.9099 59.0247 -11.9074 59.019L144.232 59.0366ZM-12.6924 59.0366H-91.6774C-91.6898 59.019 -91.6958 59.01 -91.6958 59.01L-12.6915 59.019L-12.6924 59.0366Z" fill="#18404A"/>
<path d="M12.3962 57.6506C12.4264 57.6012 12.9375 56.6769 12.9375 56.6769L12.1517 56.7785L11.793 57.4972C11.7628 57.5333 11.2093 58.4021 11.0169 58.6823C10.9786 58.7384 10.8939 58.7787 10.792 58.7916H10.7903C10.7227 58.8001 10.5898 58.8272 10.5621 58.8386C10.5295 58.8514 10.4643 58.879 10.4251 58.8961C10.3868 58.9132 10.3396 58.9322 10.3208 58.9426C10.3094 58.9488 10.2768 58.9564 10.2523 58.9616C10.2165 58.9687 10.2148 58.9982 10.2499 59.0067C10.2833 59.0148 10.3314 59.0058 10.3616 58.9996C10.4472 58.9835 10.558 58.9312 10.5621 58.9388C10.5653 58.9464 10.439 59.0666 10.426 59.0808C10.4129 59.0951 10.2662 59.2357 10.2531 59.268C10.2409 59.3008 10.2735 59.3112 10.3012 59.3008C10.3257 59.2917 10.5523 59.107 10.5523 59.107C10.5523 59.107 10.5817 59.0832 10.5874 59.0984C10.5939 59.1136 10.3885 59.2818 10.3656 59.3103C10.3428 59.3388 10.351 59.3639 10.4007 59.3568C10.4602 59.3483 10.6607 59.1606 10.6607 59.1606C10.6607 59.1606 10.686 59.1378 10.6982 59.1473C10.7105 59.1568 10.5319 59.2984 10.5262 59.3155C10.5213 59.3331 10.545 59.3521 10.5874 59.3407C10.6379 59.3264 10.814 59.1583 10.814 59.1583C10.814 59.1583 10.8335 59.1478 10.8368 59.1564C10.8409 59.1654 10.7031 59.2922 10.7072 59.3122C10.7104 59.3293 10.7365 59.3278 10.7365 59.3278C10.7936 59.3321 10.8979 59.1977 10.9778 59.145C11.0577 59.0927 12.362 57.7057 12.3962 57.6506Z" fill="#8C716C"/>
<path d="M15.5973 62.5787C15.5973 62.5787 15.766 62.6746 15.7693 62.7093C15.7734 62.7444 15.7848 63.1206 15.7155 63.1558C15.647 63.1905 15.4457 63.2156 15.5101 63.2551C15.559 63.285 15.9364 63.2783 16.1858 63.2703C16.2592 63.2679 16.3505 62.9292 16.379 62.8793C16.4214 62.8067 16.5233 62.6437 16.485 62.5934C16.4662 62.5687 16.3774 62.5183 16.2527 62.4713C16.1206 62.4214 15.9943 62.3112 15.9943 62.3112L15.5973 62.5787Z" fill="#8C716C"/>
<path d="M13.8561 62.8015L14.0061 63.0499C14.0175 63.0888 14.0616 63.1862 14.0616 63.2218C14.0616 63.3558 13.0247 63.1078 13.257 63.0485C13.2782 63.0432 13.3442 63 13.3508 62.9544C13.3614 62.8841 13.2635 62.7962 13.2635 62.7962L13.8561 62.8015Z" fill="#8C716C"/>
<path d="M12.2283 58.1893C12.2283 58.1893 12.1533 58.6329 12.1533 58.6396C12.1533 59.3582 11.9087 60.7609 11.9552 60.8963C12.0685 61.2255 13.2888 62.906 13.2888 62.906L13.9483 62.8599L13.0891 60.8483L13.4046 60.0384L13.8521 58.4377L12.2283 58.1893Z" fill="#13375B"/>
<path d="M14.4423 58.5816L14.567 59.0024L14.9053 60.7348L16.1948 62.4276C16.1948 62.4276 16.0139 62.6737 15.7457 62.7084L13.694 60.9704L12.4191 58.7464L12.4639 58.2524L14.4423 58.5816Z" fill="#355389"/>
<path d="M11.9658 57.1319L12.8804 57.186C12.8804 57.186 12.922 56.7495 12.922 56.541C12.922 56.2883 12.8853 55.9624 12.8323 55.9696C12.6856 55.989 12.4875 56.0365 12.3693 56.1311C11.9617 56.4574 11.9658 57.1319 11.9658 57.1319Z" fill="#50BFA5"/>
<path d="M12.415 56.4963C12.3954 56.5733 12.0441 58.669 12.0441 58.669C13.7095 59.1373 14.6281 58.7526 14.6281 58.7526C14.6281 58.7526 14.5735 57.281 14.6387 57.0806C14.682 56.948 14.7358 56.0674 14.5882 56.0432C14.3991 56.0113 14.1823 55.9776 13.9459 55.9634C13.7445 55.951 12.9611 55.9444 12.8209 55.9714C12.8209 55.9714 12.4957 56.1724 12.415 56.4963Z" fill="#96D9C9"/>
<path d="M16.2445 62.4689C16.2445 62.4689 15.8565 63.1045 15.7049 63.1354C15.6649 63.1434 15.4717 63.1643 15.4351 63.2142C15.4237 63.2289 15.4351 63.2793 15.4351 63.2793H16.2429C16.2429 63.2793 16.3448 62.999 16.3855 62.876C16.3855 62.876 16.5991 62.5749 16.5755 62.5478C16.5518 62.5202 16.2445 62.4689 16.2445 62.4689Z" fill="#13375B"/>
<path d="M14.1211 63.266L14.002 63.047C14.002 63.047 13.7526 63.1088 13.6279 63.0983C13.5032 63.0884 13.2595 63.047 13.2595 63.047C12.7614 63.1425 12.3538 63.189 12.428 63.266H14.1211Z" fill="#13375B"/>
<path d="M13.7249 55.5331L13.8472 55.9696C13.8472 55.9696 13.3989 56.5249 13.1307 56.4783C12.9065 56.4389 13.0443 55.962 13.0443 55.962C13.0443 55.962 13.1674 55.706 13.1307 55.5777C13.0932 55.4495 13.7249 55.5331 13.7249 55.5331Z" fill="#8C716C"/>
<path d="M13.1356 55.6085C13.1356 55.608 13.1356 55.608 13.1356 55.6076C13.1356 55.608 13.1356 55.608 13.1356 55.6085ZM13.1356 55.6052V55.6047V55.6052ZM13.1356 55.6033C13.1356 55.6028 13.1356 55.6023 13.1356 55.6019C13.1356 55.6023 13.1356 55.6028 13.1356 55.6033ZM13.1348 55.6C13.1348 55.6 13.1348 55.5995 13.1348 55.599C13.1348 55.5995 13.1348 55.6 13.1348 55.6ZM13.1348 55.5971C13.1348 55.5971 13.1348 55.5967 13.1348 55.5962C13.1348 55.5967 13.1348 55.5971 13.1348 55.5971ZM13.1339 55.5952C13.1339 55.5948 13.1339 55.5943 13.1339 55.5938C13.1339 55.5943 13.1339 55.5948 13.1339 55.5952ZM13.1339 55.5924C13.1339 55.5919 13.1339 55.5914 13.1331 55.591C13.1339 55.5914 13.1339 55.5919 13.1339 55.5924ZM13.1331 55.59C13.1331 55.5895 13.1331 55.5886 13.1331 55.5881C13.1331 55.5886 13.1331 55.5895 13.1331 55.59ZM13.1323 55.5872C13.1323 55.5867 13.1323 55.5862 13.1323 55.5853C13.1323 55.5862 13.1323 55.5867 13.1323 55.5872ZM13.1323 55.5848C13.1323 55.5843 13.1315 55.5838 13.1315 55.5829C13.1315 55.5838 13.1323 55.5843 13.1323 55.5848ZM13.1315 55.5824C13.1315 55.5819 13.1315 55.581 13.1307 55.5805C13.1315 55.581 13.1315 55.5819 13.1315 55.5824ZM13.1307 55.58C13.1307 55.5791 13.1307 55.5781 13.1307 55.5777C13.129 55.5743 13.129 55.571 13.129 55.5677C13.129 55.571 13.129 55.5743 13.1307 55.5777C13.1307 55.5781 13.1307 55.5791 13.1307 55.58Z" fill="#8A6D64"/>
<path d="M13.1144 55.7733C13.1291 55.7201 13.1396 55.6636 13.1364 55.6166C13.1364 55.6156 13.1364 55.6147 13.1364 55.6133C13.1364 55.6114 13.1364 55.6099 13.1356 55.6085C13.1356 55.608 13.1356 55.608 13.1356 55.6076C13.1356 55.6071 13.1356 55.6061 13.1356 55.6052V55.6047C13.1356 55.6042 13.1356 55.6038 13.1356 55.6033C13.1356 55.6028 13.1356 55.6023 13.1356 55.6019C13.1356 55.6014 13.1348 55.6009 13.1348 55.6C13.1348 55.6 13.1348 55.5995 13.1348 55.599C13.1348 55.5985 13.1348 55.5981 13.1348 55.5971C13.1348 55.5971 13.1348 55.5966 13.1348 55.5962C13.1339 55.5957 13.1339 55.5952 13.1339 55.5952C13.1339 55.5947 13.1339 55.5943 13.1339 55.5938C13.1339 55.5933 13.1339 55.5928 13.1339 55.5924C13.1339 55.5919 13.1339 55.5914 13.1331 55.5909C13.1331 55.5905 13.1331 55.5905 13.1331 55.59C13.1331 55.5895 13.1331 55.5886 13.1331 55.5881C13.1331 55.5881 13.1331 55.5876 13.1323 55.5871C13.1323 55.5867 13.1323 55.5862 13.1323 55.5852V55.5848C13.1323 55.5843 13.1315 55.5838 13.1315 55.5829V55.5824C13.1315 55.5819 13.1315 55.581 13.1307 55.5805C13.1307 55.58 13.1307 55.58 13.1307 55.58C13.1307 55.5791 13.1307 55.5781 13.1307 55.5776C13.1291 55.5743 13.1291 55.571 13.1291 55.5677C13.1282 55.5202 13.2326 55.5064 13.3532 55.5064C13.5228 55.5064 13.7249 55.533 13.7249 55.533L13.7347 55.5705C13.7168 55.5957 13.6939 55.6171 13.6662 55.6337C13.5252 55.7187 13.3051 55.7695 13.1144 55.7733Z" fill="#4D322E"/>
<path d="M13.8284 54.8928C13.8464 54.889 13.9711 55.4081 13.7339 55.5511C13.4967 55.6941 13.0337 55.7406 12.8674 55.6281C12.684 55.5036 12.693 54.946 13.0622 54.7987C13.4315 54.6519 13.8284 54.8928 13.8284 54.8928Z" fill="#8C716C"/>
<path d="M13.7412 54.6927C13.8708 54.7012 14.0469 54.7411 14.2295 54.9093C14.4528 55.1164 14.2873 55.3458 14.0273 55.4584C13.7665 55.571 13.7714 55.6997 13.7714 55.6997L13.729 55.6337C13.6988 55.5829 13.6866 55.5287 13.6964 55.4755C13.7029 55.4432 13.7151 55.4085 13.7388 55.38C13.8015 55.305 13.6043 55.2551 13.5488 55.1924C13.5065 55.1444 13.504 55.0342 13.4372 54.9549L13.3573 54.8941C13.3573 54.8941 13.1722 54.8133 12.9913 54.8361C12.8111 54.8589 13.0329 54.3659 13.7412 54.6927Z" fill="#0E2E35"/>
<path d="M13.5611 55.2851C13.5594 55.3483 13.6108 55.4 13.676 55.401C13.7412 55.4015 13.7958 55.3506 13.7983 55.2875C13.7999 55.2238 13.7486 55.172 13.6833 55.1716C13.6173 55.1706 13.5627 55.2214 13.5611 55.2851Z" fill="#8C716C"/>
<path d="M15.6267 56.9201L14.9697 57.1979L15.427 57.6197C15.0618 57.8325 14.1855 58.1726 14.1855 58.1726C14.1855 58.1726 14.104 58.2054 13.9939 58.2425C13.9678 58.251 13.9385 58.261 13.9092 58.271C13.8578 58.27 13.7787 58.2695 13.7315 58.279C13.6671 58.2919 13.5464 58.2976 13.5195 58.309C13.4926 58.3204 13.3826 58.4054 13.3638 58.4135C13.3443 58.4215 13.3328 58.4391 13.3247 58.4481C13.3165 58.4576 13.1829 58.5118 13.1666 58.5317C13.1494 58.5512 13.1935 58.6006 13.2236 58.6073C13.2236 58.6073 13.2301 58.6111 13.2228 58.6215C13.2155 58.632 13.222 58.659 13.2375 58.6704C13.253 58.6814 13.2937 58.6942 13.3223 58.6833L13.3426 58.6818C13.3475 58.6842 13.3565 58.7046 13.3793 58.7175C13.4021 58.7298 13.4347 58.7317 13.4804 58.716C13.4804 58.716 13.5089 58.784 13.6051 58.7498L13.7363 58.7037C13.7363 58.7037 13.8179 58.689 13.848 58.6766C13.8782 58.6638 14.0689 58.5892 14.0787 58.5797C14.0885 58.5697 14.1097 58.5465 14.1178 58.5431C14.126 58.5398 14.2116 58.4942 14.2214 58.4842C14.2279 58.4785 14.2923 58.4462 14.3404 58.423C14.4015 58.4063 14.4651 58.3888 14.5319 58.3707C15.4547 58.1175 16.3579 57.8853 16.3106 57.69C16.2845 57.5836 15.8402 57.0939 15.6267 56.9201Z" fill="#8C716C"/>
<path d="M15.7767 56.9319L14.9852 57.2421C14.9852 57.2421 14.5385 56.8549 14.2988 56.7167C13.9988 56.5443 14.408 56.0151 14.6012 56.0451C15.0341 56.112 15.7767 56.9319 15.7767 56.9319Z" fill="#96D9C9"/>
<path d="M12.8625 55.4042L13.2554 55.4275C13.2554 55.4275 13.231 55.514 13.0581 55.5064C12.847 55.4978 12.8625 55.4042 12.8625 55.4042Z" fill="white"/>
<path d="M7.26722 62.4724C7.26722 62.4724 7.21506 62.8039 7.24929 62.9117C7.25337 62.926 7.26396 62.9445 7.27537 62.9645C7.31042 63.0253 7.21424 63.21 7.21424 63.21L5.91901 63.2129C5.8489 63.2129 5.89618 63.1868 5.95324 63.163C6.04698 63.1241 6.12279 63.0979 6.42194 63.0167C6.4415 63.0115 6.51242 62.9858 6.5385 62.9768C6.60371 62.9545 6.66892 62.9189 6.72516 62.8832C6.81972 62.8234 6.83439 62.5317 6.83439 62.5317L7.26722 62.4724Z" fill="#F7A491"/>
<path d="M6.53855 62.9768C6.8801 63.0304 7.13361 62.9972 7.27626 62.9654C7.31131 63.0257 7.37734 63.2299 7.33821 63.2299C7.01296 63.2299 6.73825 63.266 5.80816 63.2575C5.77474 63.257 5.77882 63.1905 5.80083 63.1758C5.86034 63.1349 6.51246 62.9858 6.53855 62.9768Z" fill="#B75742"/>
<path d="M8.89107 58.5416C8.89107 58.5416 8.87232 59.0142 8.64 59.3168C8.4142 59.6118 7.33005 60.339 7.0423 60.7632C7.13115 61.0026 7.3757 61.3389 7.35858 61.6044C7.3382 61.9051 7.36836 62.7007 7.36836 62.7007L6.78634 62.7112L6.02417 60.6582L7.17354 58.4433L7.69524 57.9056L8.89107 58.5416Z" fill="#50BFA5"/>
<path d="M11.3757 62.0016C11.3757 62.0016 11.7327 62.2875 11.89 62.3597C11.9748 62.3982 12.2031 62.4504 12.2275 62.5141C12.252 62.5782 11.1906 63.1439 11.1906 63.1439C11.1344 63.1729 11.1409 63.133 11.158 63.0903C11.1857 63.0204 11.2151 62.9691 11.3561 62.7815C11.3651 62.7696 11.3912 62.7198 11.4009 62.7022C11.4262 62.658 11.4352 62.6024 11.4376 62.5511C11.4409 62.4647 11.101 62.2258 11.101 62.2258L11.3757 62.0016Z" fill="#F7A491"/>
<path d="M11.4009 62.7022C11.7384 62.6053 11.9014 62.4756 11.9764 62.3916C12.0767 62.4253 12.3489 62.4975 12.3245 62.5179C12.137 62.6766 11.9422 62.8737 11.189 63.2475C11.1621 63.2608 11.0512 63.1834 11.0512 63.1629C11.0504 63.1059 11.3911 62.7198 11.4009 62.7022Z" fill="#B75742"/>
<path d="M8.85032 58.2391C8.85032 58.2391 9.29947 58.6324 9.40707 58.9583C9.51141 59.2756 9.33778 60.2332 9.51874 60.6773C9.82687 60.8435 10.3584 61.0378 10.6045 61.2611C10.8841 61.5142 11.6911 62.156 11.6911 62.156L11.2249 62.3593L8.58132 60.9309L7.51103 59.0262L7.21838 58.3883L8.85032 58.2391Z" fill="#96D9C9"/>
<path d="M7.51016 57.6216C7.52809 57.5684 7.79626 56.5833 7.79626 56.5833L7.02596 56.759L6.85723 57.5209C6.83604 57.5603 6.50998 58.4932 6.39097 58.7949C6.36652 58.8557 6.29153 58.9046 6.19208 58.9264L6.19045 58.9269C6.12361 58.9417 5.99645 58.9816 5.97118 58.9953C5.94183 59.0115 5.88315 59.0457 5.8481 59.0666C5.81304 59.0875 5.77066 59.1108 5.75435 59.1231C5.74457 59.1307 5.71359 59.1416 5.68996 59.1488C5.65572 59.1592 5.66224 59.1891 5.69974 59.1948C5.73561 59.2001 5.78288 59.1863 5.81141 59.1777C5.89374 59.153 5.99238 59.0899 5.99808 59.0975C6.00379 59.1046 5.9076 59.2385 5.89864 59.2542C5.88885 59.2699 5.77881 59.4257 5.77473 59.4599C5.76984 59.4941 5.80571 59.5017 5.83179 59.4884C5.8538 59.4775 6.03394 59.2689 6.03394 59.2689C6.03394 59.2689 6.05677 59.2423 6.06737 59.2571C6.07715 59.2718 5.91493 59.4613 5.89945 59.4922C5.88477 59.5231 5.89945 59.5478 5.94754 59.5364C6.00542 59.5221 6.15785 59.3136 6.15785 59.3136C6.15785 59.3136 6.17822 59.2875 6.1929 59.296C6.20757 59.305 6.06492 59.4646 6.06411 59.4832C6.06329 59.5012 6.09264 59.5183 6.13258 59.5026C6.17986 59.4836 6.31272 59.297 6.31272 59.297C6.31272 59.297 6.32984 59.2846 6.33636 59.2927C6.34207 59.3012 6.23692 59.4428 6.2467 59.4632C6.25403 59.4798 6.28093 59.476 6.28093 59.476C6.33962 59.4746 6.40972 59.3293 6.47656 59.2685C6.54259 59.2077 7.49059 57.68 7.51016 57.6216Z" fill="#F8A492"/>
<path d="M7.18736 55.6175C7.17187 55.3981 7.22731 55.1819 7.39441 54.9777C7.5387 54.8024 7.89573 54.7027 8.22098 54.7027C9.25378 54.7017 9.38502 55.5002 10.042 55.808C10.2434 55.9025 10.4676 55.979 10.6575 56.0806C11.3593 56.4554 11.043 57.1489 10.3991 57.4776C9.95156 57.7056 9.24889 57.8353 8.69784 57.6567C8.41009 57.5636 8.19164 57.4092 8.03594 57.2396C7.81504 56.9993 7.67238 56.7219 7.51587 56.4654C7.34876 56.1927 7.20856 55.9087 7.18736 55.6175Z" fill="#0E2E35"/>
<path d="M10.4553 58.926C10.4569 58.9208 10.1138 58.0719 9.9752 57.8838C9.83662 57.6962 9.297 56.8241 9.297 56.8241L9.99476 56.7353C9.99476 56.7353 10.4447 57.4179 10.6501 57.7261C10.8555 58.0349 10.7675 58.6039 10.7765 58.764L10.8075 58.9022C10.814 58.9198 10.8205 58.935 10.8238 58.9379C10.8319 58.9455 10.8556 58.9996 10.8572 59.0039C10.858 59.0086 10.8784 59.0267 10.8865 59.0348C10.8955 59.0424 10.9142 59.1516 10.9183 59.1692C10.9224 59.1868 10.9085 59.2267 10.9085 59.2267L10.9159 59.2998C10.9216 59.3535 10.8262 59.3392 10.8262 59.3392C10.8287 59.3649 10.8132 59.3777 10.7887 59.3825C10.7643 59.3872 10.7357 59.3834 10.7308 59.3844L10.7243 59.3934C10.7268 59.4095 10.6958 59.4219 10.6754 59.4243C10.6558 59.4266 10.62 59.4186 10.6094 59.4119C10.5996 59.4048 10.5923 59.4057 10.5923 59.4057C10.5719 59.4157 10.4936 59.4157 10.4757 59.401C10.4578 59.3863 10.4415 59.3093 10.4333 59.3022C10.4252 59.2951 10.408 59.2832 10.4056 59.2723C10.4031 59.2613 10.3388 59.182 10.3355 59.1663C10.3314 59.1507 10.3714 59.0975 10.3803 59.0656C10.3885 59.0338 10.4423 58.9839 10.4553 58.9697C10.4602 58.964 10.4586 58.9459 10.4553 58.926Z" fill="#F48C7F"/>
<path d="M7.01863 56.6783C7.34142 56.1083 7.70254 56.1325 7.70254 56.1325L7.42294 57.3314C7.22405 57.2996 6.96483 57.2288 6.76593 57.196C6.83196 57.016 6.93956 56.8189 7.01863 56.6783Z" fill="#13375B"/>
<path d="M8.52755 56.0303C8.52755 56.0303 9.12179 56.008 9.35737 56.1576C9.59213 56.3073 8.83567 57.4914 8.79329 57.6819C8.75008 57.8724 9.01093 58.3787 9.01093 58.3787C9.01093 58.3787 7.61458 58.5431 7.21598 58.3887C7.21598 58.3887 7.17278 57.0188 7.21598 56.883C7.25837 56.7466 7.61459 56.1933 7.70018 56.1391C7.78577 56.0845 8.52755 56.0303 8.52755 56.0303Z" fill="#355389"/>
<path d="M8.33021 55.5663C8.33021 55.5663 8.33265 55.5767 8.33836 55.5938C8.36526 55.6774 8.46716 55.9544 8.53563 56.0304C8.6196 56.1225 8.25114 56.4156 7.89572 56.3799C7.79056 56.369 7.98538 56.1102 7.9756 56.0831C7.95767 56.0304 7.93403 55.9586 7.90876 55.8855C7.8949 55.8442 7.88023 55.8019 7.86718 55.7625C7.82969 55.6504 7.79871 55.5587 7.79871 55.5587L8.33021 55.5663Z" fill="#F7A491"/>
<path d="M8.33837 55.5938C8.33266 55.5767 8.33022 55.5663 8.33022 55.5663L7.79871 55.5587C7.79871 55.5587 7.82969 55.6504 7.86719 55.7624C7.88023 55.8019 7.8949 55.8437 7.90876 55.8845C7.99109 55.8779 8.07669 55.8546 8.16229 55.8104C8.25604 55.7624 8.31799 55.705 8.35468 55.6437C8.34815 55.6238 8.34245 55.6071 8.33837 55.5938Z" fill="#F47458"/>
<path d="M7.97237 54.8609C7.97237 54.8609 8.22262 54.8438 8.37994 54.9625C8.53645 55.0813 8.70601 55.448 8.31555 55.6475C7.92591 55.847 7.54034 55.6209 7.48328 55.3815C7.42622 55.1426 7.40421 54.8523 7.97237 54.8609Z" fill="#F7A491"/>
<path d="M7.36755 55.3782C7.41482 55.4309 7.49225 55.4603 7.54278 55.4437C7.59249 55.4266 7.59493 55.3706 7.54848 55.3174C7.50202 55.2646 7.42379 55.2352 7.37407 55.2523C7.32436 55.2689 7.3211 55.3254 7.36755 55.3782Z" fill="#F7A491"/>
<path d="M7.94385 54.8215C7.94385 54.8215 8.27887 55.1706 8.51851 55.1868C8.75735 55.2024 8.78914 55.3882 8.78914 55.3882C8.78914 55.3882 8.70355 54.9611 8.46635 54.8785C8.22915 54.7963 7.94385 54.8215 7.94385 54.8215Z" fill="#0E2E35"/>
<path d="M8.22103 55.4428L7.72052 55.4542C7.72052 55.4542 7.73926 55.5649 7.96017 55.5635C8.22836 55.5616 8.22103 55.4428 8.22103 55.4428Z" fill="white"/>
<path d="M9.56927 57.3342C9.56927 57.3342 8.79895 56.797 8.66037 56.598C8.52098 56.3994 8.72884 56.1016 9.05409 56.0783C9.37852 56.0546 10.192 56.9367 10.192 56.9367L9.56927 57.3342Z" fill="#355389"/>
<path d="M37.7966 56.9124L37.8425 56.9366C37.8659 56.949 37.901 56.9485 37.9217 56.9352L38.7365 56.4113C38.7572 56.3985 38.7545 56.378 38.7311 56.3657L38.6843 56.3415C38.6609 56.3291 38.6258 56.3296 38.6059 56.3424L37.7903 56.8668C37.7705 56.8796 37.7723 56.9 37.7966 56.9124Z" fill="#13375B"/>
<path d="M35.0323 56.4868C35.1411 56.435 35.9837 56.6511 35.9729 56.7267C35.9621 56.8017 36.561 57.5313 36.561 57.5313L37.596 57.0492C37.605 57.0316 37.7039 56.844 37.7075 56.8107C37.7138 56.7751 37.8882 56.7139 37.9691 56.7229C38.0501 56.7319 37.899 56.7913 37.8891 56.8022C37.8621 56.8321 37.9664 56.8431 37.9664 56.8431C37.9664 56.8431 38.2659 56.7476 38.2722 56.6911C38.2785 56.6345 38.3405 56.5163 38.4044 56.5409C38.4376 56.5538 38.4376 56.6378 38.4277 56.6773C38.4466 56.6322 38.4736 56.5813 38.4997 56.5761C38.5491 56.5671 38.5725 56.6032 38.5644 56.6208C38.5554 56.6384 38.4772 56.8302 38.4538 56.8516C38.4295 56.873 37.9476 57.1 37.8783 57.1495C37.8783 57.1495 36.5394 58.0443 36.4441 58.0676C36.3613 58.088 36.0628 57.7798 35.7805 57.575C35.499 57.3703 34.6915 56.6488 35.0323 56.4868Z" fill="#F7A491"/>
<path d="M32.3314 63.0641C32.3314 63.0641 32.1469 63.1691 32.1435 63.2076C32.1392 63.246 32.1271 63.6589 32.2021 63.6973C32.2771 63.7358 32.4977 63.7629 32.4271 63.8061C32.3727 63.8389 31.9607 63.8322 31.6875 63.8232C31.6073 63.8208 31.5082 63.4484 31.4763 63.3938C31.4306 63.3145 31.3185 63.1358 31.3608 63.0803C31.3806 63.0532 31.478 62.9981 31.6151 62.9463C31.759 62.8917 31.8969 62.7706 31.8969 62.7706L32.3314 63.0641Z" fill="#F48C7F"/>
<path d="M34.2369 63.3087L34.0727 63.5809C34.0604 63.6242 34.0121 63.7306 34.0121 63.7695C34.0121 63.9167 35.1458 63.645 34.8911 63.5795C34.8683 63.5738 34.7971 63.5268 34.7884 63.4764C34.7769 63.3994 34.885 63.3026 34.885 63.3026L34.2369 63.3087Z" fill="#F7A491"/>
<path d="M36.0157 58.2467C36.0157 58.2467 36.0981 58.7341 36.0981 58.7412C36.0981 59.5297 36.3656 61.0696 36.3151 61.2178C36.1911 61.5793 34.8564 63.4232 34.8564 63.4232L34.1354 63.3728L35.0751 61.1651L34.7297 60.2764L34.2399 58.5198L36.0157 58.2467Z" fill="#355389"/>
<path d="M33.5948 58.678L33.459 59.1397L33.0884 61.0407L31.6786 62.8984C31.6786 62.8984 31.8771 63.1687 32.1691 63.2067L34.4135 61.299L35.8075 58.8585L35.759 58.3165L33.5948 58.678Z" fill="#13375B"/>
<path d="M36.304 57.0867L35.3045 57.1461C35.3045 57.1461 35.2584 56.6668 35.2584 56.4379C35.2584 56.1605 35.2983 55.8033 35.3567 55.8109C35.5169 55.8327 35.7338 55.8845 35.8622 55.988C36.3084 56.3466 36.304 57.0867 36.304 57.0867Z" fill="#E25A44"/>
<path d="M35.8115 56.3891C35.8327 56.4741 36.2167 58.7736 36.2167 58.7736C34.3968 59.2875 33.3916 58.8652 33.3916 58.8652C33.3916 58.8652 33.4509 57.2502 33.3793 57.0303C33.3315 56.885 33.2731 55.9188 33.435 55.8917C33.642 55.8571 33.8783 55.82 34.1375 55.8043C34.3569 55.791 35.2152 55.7835 35.3682 55.8134C35.3682 55.8134 35.7239 56.0338 35.8115 56.3891Z" fill="#F47458"/>
<path d="M31.6242 62.9434C31.6242 62.9434 32.0483 63.6412 32.2147 63.675C32.2587 63.6839 32.469 63.7068 32.5095 63.7614C32.5216 63.7775 32.5095 63.8326 32.5095 63.8326H31.6259C31.6259 63.8326 31.5139 63.5253 31.4699 63.3904C31.4699 63.3904 31.2363 63.0603 31.2621 63.0299C31.288 62.9999 31.6242 62.9434 31.6242 62.9434Z" fill="#F7CC7F"/>
<path d="M33.9462 63.8185L34.0768 63.5781C34.0768 63.5781 34.3496 63.6456 34.4864 63.6346C34.6223 63.6233 34.8889 63.5781 34.8889 63.5781C35.4335 63.6831 35.8793 63.7339 35.799 63.8185H33.9462Z" fill="#F7CC7F"/>
<path d="M36.4438 58.0677C36.4482 58.0667 36.4624 58.0596 36.4713 58.0558C36.4393 57.8302 36.4447 57.6122 36.5662 57.5381C36.5626 57.5347 36.5369 57.5019 36.5094 57.4678C36.3693 57.5314 36.3019 57.6996 36.3285 57.9727C36.3294 57.9917 36.3391 58.0059 36.3471 58.0297C36.3879 58.0558 36.4243 58.0724 36.4438 58.0677Z" fill="#F7A491"/>
<path d="M31.5879 58.7977C31.5879 58.7929 31.5879 58.7877 31.5879 58.783C31.6148 58.6238 31.8413 57.2862 31.8794 57.2297C31.9133 57.1784 32.9276 56.3301 32.9276 56.3301L33.4265 56.7272L32.4503 57.4881C32.4287 57.5361 32.0773 58.439 32.0773 58.439C32.0773 58.439 32.0052 58.6034 31.9723 58.7022C31.9879 58.726 32.0018 58.7483 32.0148 58.7668C32.0469 58.8062 32.0851 58.838 32.1198 58.8656C32.1632 58.8998 32.2352 58.9744 32.2447 58.9943C32.2543 59.0176 32.2733 59.0656 32.2838 59.095C32.2942 59.124 32.3089 59.1577 32.3115 59.1739C32.3133 59.1834 32.3297 59.2024 32.3428 59.2162C32.3618 59.2361 32.3289 59.2604 32.2907 59.2527C32.256 59.2461 32.2282 59.219 32.2109 59.2024C32.1632 59.1554 32.138 59.0689 32.1258 59.0737C32.1137 59.0784 32.072 59.2242 32.0651 59.2409C32.059 59.2575 32.0078 59.4271 31.9792 59.458C31.9514 59.4893 31.9133 59.484 31.9037 59.4646C31.895 59.448 31.935 59.2105 31.935 59.2105C31.935 59.2105 31.9393 59.1801 31.9176 59.1896C31.895 59.199 31.8569 59.4147 31.8421 59.4461C31.8256 59.4774 31.7901 59.4945 31.7597 59.4689C31.7224 59.438 31.7866 59.2095 31.7866 59.2095C31.7866 59.2095 31.7927 59.1805 31.7727 59.1834C31.751 59.1862 31.725 59.3696 31.7085 59.3858C31.6929 59.4014 31.6512 59.4071 31.6313 59.381C31.6079 59.3497 31.6686 59.1459 31.6686 59.1459C31.6686 59.1459 31.6651 59.1297 31.6521 59.1349C31.6391 59.1402 31.5974 59.296 31.5705 59.3102C31.5471 59.3226 31.5289 59.3107 31.5289 59.3107C31.4794 59.2908 31.5549 59.143 31.5541 59.0694C31.5541 58.9957 31.6122 58.9131 31.5948 58.8253C31.5931 58.8195 31.5905 58.8062 31.5879 58.7977Z" fill="#F8A492"/>
<path d="M32.1359 56.8672L33.0024 57.2073C33.0024 57.2073 33.4905 56.7822 33.7529 56.6311C34.0816 56.4416 33.6335 55.8611 33.4217 55.8939C32.9483 55.9675 32.1359 56.8672 32.1359 56.8672Z" fill="#F47458"/>
<path d="M34.2011 55.307L34.0721 55.8067C34.0721 55.8067 34.5443 56.4013 34.8278 56.3496C35.0648 56.3064 34.9191 55.7801 34.9191 55.7801C34.9191 55.7801 34.7892 55.4974 34.8287 55.3564C34.8664 55.2148 34.2011 55.307 34.2011 55.307Z" fill="#F7A491"/>
<path d="M34.8282 55.3563C34.8668 55.2148 34.2015 55.307 34.2015 55.307L34.1901 55.3488C34.2094 55.3763 34.2339 55.4001 34.2629 55.4181C34.411 55.5117 34.6441 55.5677 34.8449 55.572C34.8256 55.496 34.8124 55.4143 34.8282 55.3563Z" fill="#F47458"/>
<path d="M34.0924 54.6006C34.0731 54.5968 33.9412 55.1692 34.1918 55.3269C34.4423 55.4846 34.9302 55.5364 35.1052 55.4119C35.2986 55.2747 35.2889 54.659 34.9003 54.4971C34.51 54.3351 34.0924 54.6006 34.0924 54.6006Z" fill="#F7A491"/>
<path d="M34.7507 54.1907C34.4495 54.2263 34.2545 54.3341 34.1834 54.3797C34.0472 54.3893 33.861 54.4334 33.6687 54.6192C33.4333 54.8476 33.6072 55.1008 33.8821 55.2248C34.1561 55.3487 34.1526 55.4922 34.1526 55.4922L34.1957 55.4181C34.2281 55.362 34.2404 55.3022 34.2299 55.2433C34.2238 55.2081 34.2106 55.1697 34.186 55.1383C34.1201 55.0557 34.3283 55.0006 34.3862 54.9312C34.431 54.8785 34.4337 54.7569 34.5039 54.669L34.5882 54.602C34.5882 54.602 34.7832 54.5132 34.9738 54.5384C35.1644 54.5636 35.1363 54.1446 34.7507 54.1907Z" fill="#184655"/>
<path d="M34.3748 55.0333C34.3765 55.1032 34.3215 55.1606 34.2534 55.1611C34.1844 55.1616 34.1267 55.1055 34.125 55.0357C34.1232 54.9659 34.1765 54.9089 34.2464 54.9079C34.3154 54.9075 34.3721 54.9635 34.3748 55.0333Z" fill="#F7A491"/>
<path d="M34.7815 55.1948L35.1591 55.1834C35.1591 55.1834 35.1573 55.2675 34.9922 55.2751C34.7903 55.2851 34.7815 55.1948 34.7815 55.1948Z" fill="white"/>
<path d="M44.4897 56.4826C44.4897 56.4826 45.2839 57.4976 45.4511 57.6867C45.6201 57.8753 45.9336 58.4571 45.9479 58.4856C45.9621 58.5146 45.547 58.8391 45.6258 58.8557C45.7037 58.8723 45.8139 58.6923 45.8966 58.7198C45.9792 58.7478 46.1749 59.2124 46.2262 59.1934C46.3212 59.1578 46.1246 58.9065 46.1749 58.8946C46.2253 58.8832 46.3383 59.1678 46.4343 59.1658C46.5312 59.164 46.2832 58.9017 46.3127 58.8822C46.3421 58.8623 46.6005 59.1108 46.6585 59.0651C46.6898 59.0405 46.42 58.8476 46.478 58.8348C46.5359 58.8224 46.781 58.9516 46.8124 58.9207C46.8437 58.8903 46.5825 58.8286 46.5122 58.7359C46.4428 58.6433 46.3117 58.5968 46.2737 58.431C46.2376 58.2657 46.2224 57.6748 45.9678 57.3642C45.7142 57.053 45.1547 56.3648 45.1547 56.3648L44.4897 56.4826Z" fill="#8C716C"/>
<path d="M44.7425 55.352C44.7603 55.1017 44.6966 54.8542 44.5054 54.621C44.3404 54.4201 43.9327 54.3065 43.5616 54.3061C42.3798 54.3051 42.2299 55.218 41.4782 55.5705C41.2486 55.6779 40.9928 55.7657 40.7753 55.8816C39.9722 56.3101 40.3339 57.1033 41.0706 57.4791C41.5823 57.7394 42.3854 57.8876 43.0162 57.6838C43.3442 57.5774 43.5944 57.4007 43.7725 57.2069C44.0246 56.9318 44.1877 56.6146 44.3676 56.3219C44.5578 56.0099 44.719 55.685 44.7425 55.352Z" fill="#13375B"/>
<path d="M40.5229 54.3773C40.5782 54.354 40.7153 54.5179 40.7816 54.5165C40.8488 54.5151 40.7365 54.287 40.7862 54.2695C40.8783 54.2372 40.9354 54.5146 40.9787 54.5013C41.0228 54.488 40.9879 54.2001 41.0836 54.2153C41.1775 54.2305 41.0652 54.516 41.1241 54.5136C41.1821 54.5117 41.1876 54.2428 41.3083 54.2267C41.3736 54.2177 41.1987 54.6851 41.2576 54.7259C41.3165 54.7663 41.5651 54.6176 41.6287 54.6466C41.6922 54.6761 41.1416 54.8946 41.1324 54.924C41.1241 54.953 41.01 55.5809 41.0247 55.7885C41.1481 55.7923 41.8423 55.8726 41.9583 55.8749C41.8809 56.0061 42.0697 56.1419 42.0061 56.2744C41.6176 56.2545 40.4585 56.2027 40.3857 56.1542C40.1648 56.0061 40.5699 55.0893 40.6638 54.9287C40.7568 54.7677 40.6647 54.7012 40.6702 54.6024C40.6748 54.5041 40.4686 54.4001 40.5229 54.3773Z" fill="#8C716C"/>
<path d="M42.3293 63.751C42.4262 63.7087 42.5055 63.6812 42.8196 63.5924C42.8401 63.5866 42.9147 63.5591 42.9417 63.5496C43.0098 63.5249 43.0779 63.4869 43.1366 63.4484C43.1925 63.4119 43.2196 63.295 43.2317 63.2014C43.2 62.9929 42.6817 59.6484 42.5726 59.2865C42.4588 58.9126 42.6313 58.3426 42.6313 58.3426L43.0312 58.2548L43.791 59.7895L43.7314 60.958C43.7314 60.958 43.9104 61.2948 43.9327 61.4962C43.9551 61.6971 43.6745 63.3307 43.6745 63.3307C43.6745 63.3891 43.6792 63.4418 43.6894 63.4751C43.7109 63.5358 43.8255 63.6617 43.7724 63.7192C43.7193 63.7767 43.6596 63.7914 43.6596 63.7914L42.2938 63.8042C42.2192 63.8047 42.2687 63.7767 42.3293 63.751Z" fill="#8C716C"/>
<path d="M44.401 58.2229C44.401 58.2229 44.8758 58.6399 44.9876 58.9848C45.1014 59.3296 44.9061 60.3898 45.1222 60.8421C45.2407 61.0867 45.6861 61.4643 45.7534 61.7806C45.8207 62.097 46.0577 63.01 46.0577 63.01H46.0567C46.0927 63.1055 46.1486 63.2242 46.2216 63.2793C46.2652 63.313 46.3467 63.3553 46.3998 63.4166C46.4822 63.5115 46.4368 63.6526 46.3752 63.7305C46.3448 63.7704 46.378 63.7704 46.306 63.7833C46.0946 63.8213 45.87 63.7571 45.78 63.6388C45.7297 63.5723 45.6861 63.4845 45.6767 63.3733C45.6672 63.2555 45.635 63.162 45.6018 63.0931L44.0863 60.9261L42.9889 59.0565L42.7083 58.0937L44.401 58.2229Z" fill="#8C716C"/>
<path d="M45.7381 63.5767C46.0661 63.6114 46.2842 63.4992 46.3979 63.4157C46.4814 63.5106 46.5221 63.6522 46.4614 63.7306C46.4065 63.799 46.2491 63.7971 46.1239 63.7999C45.9931 63.8028 45.8907 63.76 45.8263 63.6931C45.7959 63.6622 45.7637 63.6233 45.7381 63.5767Z" fill="#13375B"/>
<path d="M42.9414 63.5492C43.3019 63.6033 43.5692 63.5668 43.7182 63.5316C43.7573 63.5953 43.8076 63.6755 43.7806 63.7216C43.747 63.7777 43.7005 63.7905 43.6586 63.7914C43.3289 63.7962 42.4506 63.8033 42.1992 63.8052C42.1638 63.8052 42.1442 63.7815 42.1666 63.7658C42.2299 63.7221 42.9144 63.5592 42.9414 63.5492Z" fill="#13375B"/>
<path d="M44.0941 60.8852C44.066 60.8867 44.0368 60.8876 44.0086 60.8886H44.0039C43.9757 60.8896 43.9485 60.8905 43.9194 60.8914L43.9137 60.8919C43.8865 60.8924 43.8573 60.8933 43.8291 60.8943H43.8244C43.7953 60.8948 43.7662 60.8957 43.737 60.8962C43.4138 60.9024 43.0144 60.9 42.7569 60.8743C42.6272 60.1115 42.5774 59.4151 42.5285 59.2612C42.412 58.8874 42.6319 58.2974 42.6319 58.2974L42.614 58.1573L42.6704 58.068L44.4315 58.1977C44.4315 58.1977 44.9249 58.6143 45.0424 58.9591C45.1598 59.3044 44.9559 60.3647 45.1815 60.8164C45.1815 60.8164 44.6787 60.8625 44.0941 60.8852Z" fill="#13375B"/>
<path d="M41.6958 55.8179C41.6958 55.8179 43.014 55.7372 43.4039 55.8132C43.792 55.8892 44.0654 56.2131 43.8583 56.3941C43.6502 56.5756 41.7788 56.3381 41.7788 56.3381L41.6958 55.8179Z" fill="#EAB054"/>
<path d="M44.0213 55.7462C44.0213 55.7462 44.6735 55.723 44.931 55.8821C45.1895 56.0413 44.3587 57.301 44.3126 57.5038C44.2647 57.7066 44.5513 58.2453 44.5513 58.2453C44.5513 58.2453 43.0194 58.4201 42.5805 58.2562C42.5805 58.2562 42.5007 56.7841 42.5476 56.6397C42.5946 56.4949 43.0194 55.9201 43.1134 55.8622C43.2074 55.8042 44.0213 55.7462 44.0213 55.7462Z" fill="#F7CC7F"/>
<path d="M43.803 55.2528C43.803 55.2528 43.8076 55.2636 43.8132 55.2822C43.8421 55.371 43.9541 55.6655 44.0297 55.7467C44.1212 55.8446 43.7171 56.1566 43.327 56.1186C43.2113 56.1073 43.425 55.8318 43.4156 55.8023C43.396 55.7467 43.369 55.6703 43.3419 55.5923C43.326 55.5482 43.3111 55.5035 43.2962 55.4617C43.2551 55.342 43.2206 55.2447 43.2206 55.2447L43.803 55.2528Z" fill="#8C716C"/>
<path d="M43.3215 55.5359C43.3188 55.5264 43.315 55.5174 43.3132 55.5084C43.315 55.5174 43.3188 55.5264 43.3215 55.5359ZM43.8142 55.2842C43.8133 55.2837 43.8133 55.2827 43.8133 55.2823C43.8133 55.2827 43.8133 55.2837 43.8142 55.2842Z" fill="#0A1827"/>
<path d="M43.3416 55.5914C43.3351 55.5729 43.3286 55.5544 43.322 55.5359C43.3192 55.5264 43.3155 55.5173 43.3127 55.5083C43.3071 55.4926 43.3015 55.477 43.2969 55.4618C43.255 55.3421 43.2214 55.2447 43.2214 55.2447L43.8036 55.2528C43.8036 55.2528 43.8083 55.2637 43.8138 55.2822C43.8138 55.2827 43.8138 55.2836 43.8148 55.2841C43.8185 55.2974 43.8241 55.315 43.8315 55.3349C43.7906 55.4005 43.7235 55.4618 43.6201 55.5126C43.526 55.5591 43.4319 55.5843 43.3416 55.5914Z" fill="#4D322E"/>
<path d="M43.4119 54.5022C43.4119 54.5022 43.6864 54.4841 43.8583 54.6105C44.031 54.7364 44.2168 55.1268 43.7892 55.3391C43.3605 55.551 42.9375 55.3111 42.8749 55.0565C42.8124 54.8014 42.7881 54.4927 43.4119 54.5022Z" fill="#8C716C"/>
<path d="M42.7479 55.0528C42.7988 55.1088 42.885 55.1401 42.9396 55.1221C42.9933 55.1046 42.9971 55.0442 42.9461 54.9882C42.8952 54.9317 42.809 54.9008 42.7543 54.9183C42.6997 54.9364 42.6969 54.9962 42.7479 55.0528Z" fill="#8C716C"/>
<path d="M43.3793 54.4605C43.3793 54.4605 43.7475 54.8315 44.0101 54.8487C44.2717 54.8662 44.3072 55.0634 44.3072 55.0634C44.3072 55.0634 44.2128 54.6088 43.9531 54.5209C43.6924 54.4335 43.3793 54.4605 43.3793 54.4605Z" fill="#13375B"/>
<path d="M43.9401 54.9422C43.9195 55.0077 43.9625 55.0686 44.0363 55.0771C44.111 55.0857 44.1894 55.0391 44.21 54.9736C44.2314 54.9075 44.1885 54.8472 44.1138 54.8382C44.04 54.8296 43.9625 54.8762 43.9401 54.9422Z" fill="#8C716C"/>
<path d="M43.5803 55.1136L43.2045 55.1449C43.2045 55.1449 43.2343 55.2271 43.3998 55.2162C43.6017 55.2029 43.5803 55.1136 43.5803 55.1136Z" fill="white"/>
<path d="M44.9026 57.2008C44.9026 57.2008 44.1658 56.5581 44.0997 56.3225C44.0337 56.0864 44.3978 55.7943 44.7696 55.8171C45.1413 55.8399 45.7781 56.9143 45.7781 56.9143L44.9026 57.2008Z" fill="#F7CC7F"/>
</g>
<defs>
<clipPath id="clip0_2_3221">
<rect width="49" height="66" fill="white" transform="translate(0 0.5)"/>
</clipPath>
</defs>
</svg>
